# xmcd
#
# Track frame offsets: 
#        150
#        13138
#        23338
#        38104
#        50951
#        62018
#        70256
#        86095
#        97172
#        109754
#        119721
#        132368
#
# Disc length: 1946 seconds
#
# Revision: 0
# Processed by: cddbd v1.4PL0 Copyright (c) Steve Scherf et al.
# Submitted via: ExactAudioCopy v0.90b4
#
DISCID=ac07980c
DTITLE=Slim Whitman - Best Of Slim Whitman
DYEAR=1900
DGENRE=Pop-Folk
TTITLE0=Red Sails In The Sunset
TTITLE1=Any Time
TTITLE2=Mocking Bird Hill
TTITLE3=Release Me
TTITLE4=The Wayward Wind
TTITLE5=Have You Ever Been Lonely
TTITLE6=Down In The valley
TTITLE7=Singin' The Blues
TTITLE8=Half As Much
TTITLE9=Cara Mia
TTITLE10=Tennessee Valley
TTITLE11=You Are My Sunshine
EXTD=
EXTT0=
EXTT1=
EXTT2=
EXTT3=
EXTT4=
EXTT5=
EXTT6=
EXTT7=
EXTT8=
EXTT9=
EXTT10=
EXTT11=
PLAYORDER=
